<?xml version="1.0" standalone="no"?><!DOCTYPE svg PUBLIC "-//W3C//DTD SVG 1.1//EN" "http://www.w3.org/Graphics/SVG/1.1/DTD/svg11.dtd"><svg t="1571556571723" class="icon" viewBox="0 0 1024 1024" version="1.1" xmlns="http://www.w3.org/2000/svg" p-id="4944" width="32" height="32" xmlns:xlink="http://www.w3.org/1999/xlink"><defs><style type="text/css"></style></defs><path d="M128 512h170.666667a213.333333 213.333333 0 0 1 213.333333-213.333333 213.333333 213.333333 0 0 1 213.333333 213.333333h170.666667a42.666667 42.666667 0 0 1 42.666667 42.666667 42.666667 42.666667 0 0 1-42.666667 42.666666H128a42.666667 42.666667 0 0 1-42.666667-42.666666 42.666667 42.666667 0 0 1 42.666667-42.666667m85.333333 170.666667h597.333334a42.666667 42.666667 0 0 1 42.666666 42.666666 42.666667 42.666667 0 0 1-42.666666 42.666667H213.333333a42.666667 42.666667 0 0 1-42.666666-42.666667 42.666667 42.666667 0 0 1 42.666666-42.666666m512 170.666666a42.666667 42.666667 0 0 1 42.666667 42.666667 42.666667 42.666667 0 0 1-42.666667 42.666667H298.666667a42.666667 42.666667 0 0 1-42.666667-42.666667 42.666667 42.666667 0 0 1 42.666667-42.666667h426.666666m-85.333333-341.333333a128 128 0 0 0-128-128 128 128 0 0 0-128 128h256M512 85.333333l101.973333 145.92C582.4 219.733333 547.84 213.333333 512 213.333333c-35.84 0-70.4 6.4-101.973333 17.92L512 85.333333M142.506667 298.666667l177.493333-14.933334A307.2 307.2 0 0 0 253.44 362.666667c-18.773333 31.573333-29.44 64-35.413333 97.706666L142.506667 298.666667m738.56 0l-75.52 161.706666a299.648 299.648 0 0 0-101.546667-177.066666l177.066667 15.36z" fill="#1296db" p-id="4945"></path></svg>